<svg width="14" height="21" fill="none" xmlns="http://www.w3.org/2000/svg"><path d="M3.5 21A3.5 3.5 0 0 0 7 17.5V14H3.5a3.5 3.5 0 0 0 0 7Z" fill="#0ACF83"/><path d="M.001 10.5a3.5 3.5 0 0 1 3.5-3.5H7v7H3.5a3.5 3.5 0 0 1-3.499-3.5Z" fill="#A259FF"/><path d="M.002 3.5a3.5 3.5 0 0 1 3.5-3.5H7v7h-3.5A3.5 3.5 0 0 1 .003 3.5Z" fill="#F24E1E"/><path d="M7 0h3.5a3.5 3.5 0 0 1 0 7H7V0Z" fill="#FF7262"/><path d="M13.999 10.5a3.5 3.5 0 0 1-3.5 3.5 3.5 3.5 0 0 1 0-7 3.5 3.5 0 0 1 3.5 3.5Z" fill="#1ABCFE"/></svg>