<svg width="24" height="24" fill="none" xmlns="http://www.w3.org/2000/svg"><path fill-rule="evenodd" clip-rule="evenodd" d="M11.917 11.019a.917.917 0 1 0-1.834-.002.917.917 0 0 0 1.834.002Zm1.751 0a2.672 2.672 0 0 1-2.667 2.671 2.672 2.672 0 0 1-2.667-2.671 2.672 2.672 0 0 1 2.667-2.671 2.672 2.672 0 0 1 2.667 2.671Zm5.125-2.679a8.267 8.267 0 0 0-5.117-5.113l-.118.936a7.361 7.361 0 0 1 4.299 4.293l.936-.116Zm-1.858.232a6.445 6.445 0 0 0-3.491-3.494l-.12.955a5.538 5.538 0 0 1 2.656 2.659l.955-.12Zm-2.267 2.447a3.671 3.671 0 0 0-3.667-3.673 3.67 3.67 0 0 0-3.667 3.673 3.67 3.67 0 0 0 3.667 3.673 3.671 3.671 0 0 0 3.667-3.673Zm-5.991 4.987a5.54 5.54 0 0 1-2.654-2.66l-.954.119a6.434 6.434 0 0 0 3.49 3.496l.118-.955Zm-.238 1.906a7.365 7.365 0 0 1-4.308-4.329l-.935.118a8.277 8.277 0 0 0 5.126 5.147l.117-.936ZM22 11.019c0 .264-.022.521-.04.78a1.902 1.902 0 0 0-.894-.021c-.295-.486-.85-.799-1.503-.799-.685 0-1.27.351-1.548.885-.946-.17-2.098.418-2.098 1.593v2.761c-.687-.72-2.916-.376-2.916 1.41 0 .275.062.549.185.82.066.158 1.393 2.805 1.467 2.955-1.144.404-2.37.635-3.652.635C4.926 22.038 0 17.105 0 11.019 0 4.934 4.926 0 11 0s11 4.934 11 11.019Zm-6.302 6.286c.007.01.757 1.39.872 1.607.124.228.494.179.494-.12v-5.335c0-.839 1.348-.814 1.348 0v4.311c0 .234.453.23.453 0l.002-5.131c0-.441.355-.656.714-.656.363 0 .729.221.729.656v5.072c0 .235.437.244.437.006v-4.323c0-.862 1.475-.886 1.475 0v4.579c0 .233.472.234.472 0v-2.849c0-.778 1.304-.822 1.304.039L24 21.66c0 1.489-.831 2.34-2.406 2.34h-2.935c-1.497 0-2.022-.846-2.438-1.696-.395-.808-2.001-3.976-2.125-4.272a.97.97 0 0 1-.095-.404c0-.809 1.276-1.128 1.697-.323Z" fill="#000"/></svg>