<svg width="18" height="18" fill="none" xmlns="http://www.w3.org/2000/svg"><path d="M3.052 9.75H0v-1.5h3.052C3.02 8.496 3 8.746 3 9s.021.504.052.75Zm2.275-5.484-2.16-2.16-1.061 1.06 2.16 2.16a6.014 6.014 0 0 1 1.061-1.06Zm8.407 1.06 2.16-2.16-1.06-1.06-2.16 2.16a6.09 6.09 0 0 1 1.06 1.06ZM9 3c.254 0 .504.021.75.052V0h-1.5v3.052C8.496 3.02 8.746 3 9 3Zm0 12c-.254 0-.504-.021-.75-.052V18h1.5v-3.052C9.504 14.98 9.254 15 9 15Zm5.948-6.75c.031.246.052.496.052.75s-.021.504-.052.75H18v-1.5h-3.052Zm-2.274 5.484 2.16 2.16 1.06-1.06-2.16-2.16a6.093 6.093 0 0 1-1.06 1.06Zm-8.408-1.061-2.16 2.16 1.06 1.06 2.16-2.16a6.04 6.04 0 0 1-1.06-1.06ZM9 4.5a4.5 4.5 0 1 0 0 9 4.5 4.5 0 0 0 0-9Z" fill="#A1A5AC"/></svg>