<svg width="24" height="24" viewBox="0 0 24 24" fill="none" xmlns="http://www.w3.org/2000/svg">
<path fill-rule="evenodd" clip-rule="evenodd" d="M11.917 11.019C11.917 10.512 11.507 10.101 11.001 10.101C10.495 10.101 10.084 10.512 10.084 11.019C10.084 11.526 10.495 11.937 11.001 11.937C11.507 11.937 11.917 11.526 11.917 11.019ZM13.668 11.019C13.668 12.492 12.472 13.69 11.001 13.69C9.531 13.69 8.334 12.492 8.334 11.019C8.334 9.546 9.531 8.348 11.001 8.348C12.472 8.348 13.668 9.546 13.668 11.019ZM18.793 8.34C17.966 5.943 16.071 4.05 13.676 3.227L13.558 4.163C15.539 4.904 17.111 6.476 17.857 8.456L18.793 8.34ZM16.935 8.572C16.283 6.992 15.022 5.729 13.444 5.078L13.324 6.033C14.49 6.581 15.433 7.524 15.98 8.692L16.935 8.572ZM14.668 11.019C14.668 8.991 13.025 7.346 11.001 7.346C8.976 7.346 7.334 8.991 7.334 11.019C7.334 13.047 8.976 14.692 11.001 14.692C13.025 14.692 14.668 13.047 14.668 11.019ZM8.677 16.006C7.511 15.457 6.57 14.514 6.023 13.346L5.069 13.465C5.719 15.047 6.98 16.309 8.559 16.961L8.677 16.006ZM8.439 17.912C6.45 17.165 4.87 15.58 4.131 13.583L3.196 13.701C4.018 16.113 5.917 18.019 8.322 18.848L8.439 17.912ZM22 11.019C22 11.283 21.978 11.54 21.96 11.799C21.828 11.766 21.503 11.685 21.066 11.778C20.771 11.292 20.216 10.979 19.563 10.979C18.878 10.979 18.293 11.33 18.015 11.864C17.069 11.694 15.917 12.282 15.917 13.457V16.218C15.23 15.498 13.001 15.842 13.001 17.628C13.001 17.903 13.063 18.177 13.186 18.448C13.252 18.606 14.579 21.253 14.653 21.403C13.509 21.807 12.283 22.038 11.001 22.038C4.926 22.038 0 17.105 0 11.019C0 4.934 4.926 0 11 0C17.074 0 22 4.934 22 11.019ZM15.698 17.305C15.705 17.315 16.455 18.695 16.57 18.912C16.694 19.14 17.064 19.091 17.064 18.792V13.457C17.064 12.618 18.412 12.643 18.412 13.457V17.768C18.412 18.002 18.865 17.998 18.865 17.768L18.867 12.637C18.867 12.196 19.222 11.981 19.581 11.981C19.944 11.981 20.31 12.202 20.31 12.637V17.709C20.31 17.944 20.747 17.953 20.747 17.715V13.392C20.747 12.53 22.222 12.506 22.222 13.392V17.971C22.222 18.204 22.694 18.205 22.694 17.971V15.122C22.694 14.344 23.998 14.3 23.998 15.161L24 21.66C24 23.149 23.169 24 21.594 24H18.659C17.162 24 16.637 23.154 16.221 22.304C15.826 21.496 14.22 18.328 14.096 18.032C14.03 17.888 14.001 17.752 14.001 17.628C14.001 16.819 15.277 16.5 15.698 17.305Z" fill="black"/>
</svg>
