<svg width="99" height="26" viewBox="0 0 99 26" fill="none" xmlns="http://www.w3.org/2000/svg">
<path d="M41.32 20V6H47.4C48.28 6 49.0467 6.15333 49.7 6.46C50.3533 6.76667 50.86 7.2 51.22 7.76C51.58 8.32 51.76 8.98 51.76 9.74V9.98C51.76 10.82 51.56 11.5 51.16 12.02C50.76 12.54 50.2667 12.92 49.68 13.16V13.52C50.2133 13.5467 50.6267 13.7333 50.92 14.08C51.2133 14.4133 51.36 14.86 51.36 15.42V20H48.72V15.8C48.72 15.48 48.6333 15.22 48.46 15.02C48.3 14.82 48.0267 14.72 47.64 14.72H43.96V20H41.32ZM43.96 12.32H47.12C47.7467 12.32 48.2333 12.1533 48.58 11.82C48.94 11.4733 49.12 11.02 49.12 10.46V10.26C49.12 9.7 48.9467 9.25333 48.6 8.92C48.2533 8.57333 47.76 8.4 47.12 8.4H43.96V12.32ZM58.5567 20.28C57.5701 20.28 56.6967 20.0733 55.9367 19.66C55.1901 19.2333 54.6034 18.64 54.1767 17.88C53.7634 17.1067 53.5567 16.2 53.5567 15.16V14.92C53.5567 13.88 53.7634 12.98 54.1767 12.22C54.5901 11.4467 55.1701 10.8533 55.9167 10.44C56.6634 10.0133 57.5301 9.8 58.5167 9.8C59.4901 9.8 60.3367 10.02 61.0567 10.46C61.7767 10.8867 62.3367 11.4867 62.7367 12.26C63.1367 13.02 63.3367 13.9067 63.3367 14.92V15.78H56.1167C56.1434 16.46 56.3967 17.0133 56.8767 17.44C57.3567 17.8667 57.9434 18.08 58.6367 18.08C59.3434 18.08 59.8634 17.9267 60.1967 17.62C60.5301 17.3133 60.7834 16.9733 60.9567 16.6L63.0167 17.68C62.8301 18.0267 62.5567 18.4067 62.1967 18.82C61.8501 19.22 61.3834 19.5667 60.7967 19.86C60.2101 20.14 59.4634 20.28 58.5567 20.28ZM56.1367 13.9H60.7767C60.7234 13.3267 60.4901 12.8667 60.0767 12.52C59.6767 12.1733 59.1501 12 58.4967 12C57.8167 12 57.2767 12.1733 56.8767 12.52C56.4767 12.8667 56.2301 13.3267 56.1367 13.9ZM65.5797 20V10.08H68.0597V11.16H68.4197C68.593 10.8267 68.8797 10.54 69.2797 10.3C69.6797 10.0467 70.2064 9.92 70.8597 9.92C71.5664 9.92 72.133 10.06 72.5597 10.34C72.9864 10.6067 73.313 10.96 73.5397 11.4H73.8997C74.1264 10.9733 74.4464 10.62 74.8597 10.34C75.273 10.06 75.8597 9.92 76.6197 9.92C77.233 9.92 77.7864 10.0533 78.2797 10.32C78.7864 10.5733 79.1864 10.9667 79.4797 11.5C79.7864 12.02 79.9397 12.68 79.9397 13.48V20H77.4197V13.66C77.4197 13.1133 77.2797 12.7067 76.9997 12.44C76.7197 12.16 76.3264 12.02 75.8197 12.02C75.2464 12.02 74.7997 12.2067 74.4797 12.58C74.173 12.94 74.0197 13.46 74.0197 14.14V20H71.4997V13.66C71.4997 13.1133 71.3597 12.7067 71.0797 12.44C70.7997 12.16 70.4064 12.02 69.8997 12.02C69.3264 12.02 68.8797 12.2067 68.5597 12.58C68.253 12.94 68.0997 13.46 68.0997 14.14V20H65.5797ZM82.65 20V10.08H85.17V20H82.65ZM83.91 8.92C83.4567 8.92 83.07 8.77333 82.75 8.48C82.4433 8.18667 82.29 7.8 82.29 7.32C82.29 6.84 82.4433 6.45333 82.75 6.16C83.07 5.86667 83.4567 5.72 83.91 5.72C84.3767 5.72 84.7633 5.86667 85.07 6.16C85.3767 6.45333 85.53 6.84 85.53 7.32C85.53 7.8 85.3767 8.18667 85.07 8.48C84.7633 8.77333 84.3767 8.92 83.91 8.92ZM87.0825 20L90.6825 15L87.1225 10.08H90.0425L92.3025 13.38H92.6625L94.9225 10.08H97.8425L94.2825 15L97.8825 20H94.9225L92.6625 16.66H92.3025L90.0425 20H87.0825Z" fill="black"/>
<path fill-rule="evenodd" clip-rule="evenodd" d="M11.917 12.019C11.917 11.512 11.507 11.101 11.001 11.101C10.495 11.101 10.084 11.512 10.084 12.019C10.084 12.526 10.495 12.937 11.001 12.937C11.507 12.937 11.917 12.526 11.917 12.019ZM13.668 12.019C13.668 13.492 12.472 14.69 11.001 14.69C9.531 14.69 8.334 13.492 8.334 12.019C8.334 10.546 9.531 9.348 11.001 9.348C12.472 9.348 13.668 10.546 13.668 12.019ZM18.793 9.34C17.966 6.943 16.071 5.05 13.676 4.227L13.558 5.163C15.539 5.904 17.111 7.476 17.857 9.456L18.793 9.34ZM16.935 9.572C16.283 7.992 15.022 6.729 13.444 6.078L13.324 7.033C14.49 7.581 15.433 8.524 15.98 9.692L16.935 9.572ZM14.668 12.019C14.668 9.991 13.025 8.346 11.001 8.346C8.976 8.346 7.334 9.991 7.334 12.019C7.334 14.047 8.976 15.692 11.001 15.692C13.025 15.692 14.668 14.047 14.668 12.019ZM8.677 17.006C7.511 16.457 6.57 15.514 6.023 14.346L5.069 14.465C5.719 16.047 6.98 17.309 8.559 17.961L8.677 17.006ZM8.439 18.912C6.45 18.165 4.87 16.58 4.131 14.583L3.196 14.701C4.018 17.113 5.917 19.019 8.322 19.848L8.439 18.912ZM22 12.019C22 12.283 21.978 12.54 21.96 12.799C21.828 12.766 21.503 12.685 21.066 12.778C20.771 12.292 20.216 11.979 19.563 11.979C18.878 11.979 18.293 12.33 18.015 12.864C17.069 12.694 15.917 13.282 15.917 14.457V17.218C15.23 16.498 13.001 16.842 13.001 18.628C13.001 18.903 13.063 19.177 13.186 19.448C13.252 19.606 14.579 22.253 14.653 22.403C13.509 22.807 12.283 23.038 11.001 23.038C4.926 23.038 0 18.105 0 12.019C0 5.934 4.926 1 11 1C17.074 1 22 5.934 22 12.019ZM15.698 18.305C15.705 18.315 16.455 19.695 16.57 19.912C16.694 20.14 17.064 20.091 17.064 19.792V14.457C17.064 13.618 18.412 13.643 18.412 14.457V18.768C18.412 19.002 18.865 18.998 18.865 18.768L18.867 13.637C18.867 13.196 19.222 12.981 19.581 12.981C19.944 12.981 20.31 13.202 20.31 13.637V18.709C20.31 18.944 20.747 18.953 20.747 18.715V14.392C20.747 13.53 22.222 13.506 22.222 14.392V18.971C22.222 19.204 22.694 19.205 22.694 18.971V16.122C22.694 15.344 23.998 15.3 23.998 16.161L24 22.66C24 24.149 23.169 25 21.594 25H18.659C17.162 25 16.637 24.154 16.221 23.304C15.826 22.496 14.22 19.328 14.096 19.032C14.03 18.888 14.001 18.752 14.001 18.628C14.001 17.819 15.277 17.5 15.698 18.305Z" fill="#F7CA18"/>
</svg>
