<svg width="18" height="18" viewBox="0 0 18 18" fill="none" xmlns="http://www.w3.org/2000/svg">
<path d="M3.05175 9.75H0V8.25H3.05175C3.021 8.496 3 8.74575 3 9C3 9.25425 3.021 9.504 3.05175 9.75ZM5.32725 4.266L3.1665 2.10525L2.106 3.16575L4.26675 5.3265C4.575 4.92975 4.9305 4.57425 5.32725 4.266ZM13.734 5.3265L15.8948 3.16575L14.8342 2.10525L12.6735 4.266C13.0695 4.57425 13.425 4.9305 13.734 5.3265ZM9 3C9.25425 3 9.504 3.021 9.75 3.05175V0H8.25V3.05175C8.496 3.021 8.74575 3 9 3ZM9 15C8.74575 15 8.496 14.979 8.25 14.9482V18H9.75V14.9482C9.504 14.979 9.25425 15 9 15ZM14.9482 8.25C14.979 8.496 15 8.74575 15 9C15 9.25425 14.979 9.504 14.9482 9.75H18V8.25H14.9482ZM12.6735 13.734L14.8335 15.894L15.8948 14.8335L13.7347 12.6735C13.4257 13.0695 13.0703 13.425 12.6735 13.734ZM4.266 12.6727L2.106 14.8328L3.1665 15.8932L5.3265 13.7333C4.9305 13.425 4.57425 13.0695 4.266 12.6727ZM9 4.5C6.5145 4.5 4.5 6.5145 4.5 9C4.5 11.4855 6.5145 13.5 9 13.5C11.4855 13.5 13.5 11.4855 13.5 9C13.5 6.5145 11.4855 4.5 9 4.5Z" fill="#A1A5AC"/>
</svg>
